<svg width="622" height="622" viewBox="0 0 622 622" fill="none" xmlns="http://www.w3.org/2000/svg">
<rect width="622" height="622" rx="155" fill="#CA8A04"/>
<path d="M300.029 166.5H271.529V311H300.029C323.029 311 340.696 304.5 353.029 291.5C365.696 278.167 372.029 260.5 372.029 238.5C372.029 216.167 365.696 198.667 353.029 186C340.696 173 323.029 166.5 300.029 166.5ZM221.529 120H315.029C316.029 120 317.029 120 318.029 120C373.029 120 413.863 137 440.529 171C455.196 189.667 462.529 212.167 462.529 238.5C462.529 264.833 455.196 287.167 440.529 305.5C413.529 339.833 371.696 357 315.029 357H271.029V436.5C271.029 454.5 276.529 466.333 287.529 472C274.863 486.333 259.529 493.5 241.529 493.5C208.863 493.5 192.529 473.667 192.529 434V176.5C192.529 159.5 186.863 148 175.529 142C187.863 127.333 203.196 120 221.529 120Z" fill="white"/>
</svg>
